<svg width="32" height="32" viewBox="0 0 32 32" fill="none" xmlns="http://www.w3.org/2000/svg">
<path d="M8.15479 12.8244C8.15479 11.2645 9.40124 9.99988 10.9388 9.99988H27.6435C29.1811 9.99988 30.4275 11.2645 30.4275 12.8244V25.1753C30.4275 26.7353 29.1811 27.9999 27.6435 27.9999H10.9388C9.40124 27.9999 8.15479 26.7353 8.15479 25.1753V12.8244Z" fill="#51CFFF"/>
<path d="M2.42773 6.82456C2.42773 5.2646 3.68132 4 5.22769 4H22.0279C23.5742 4 24.8278 5.2646 24.8278 6.82456V19.1754C24.8278 20.7354 23.5742 22 22.0279 22H5.22769C3.68132 22 2.42773 20.7354 2.42773 19.1754V6.82456Z" fill="#4255FF"/>
</svg>