<svg width="300" height="150" viewBox="0 0 300 150" fill="none" xmlns="http://www.w3.org/2000/svg">
<path fill-rule="evenodd" clip-rule="evenodd" d="M87.4295 138.259C84.0629 138.671 81.0055 136.269 80.6237 132.911L69.71 36.944C69.3332 33.631 71.7065 30.6342 75.0288 30.2279L205.131 14.3156C208.475 13.9065 211.519 16.2756 211.93 19.607L223.746 115.464C224.156 118.795 221.778 121.828 218.433 122.237L87.4295 138.259Z" fill="#51CFFF"/>
<g filter="url(#filter0_d)">
<path fill-rule="evenodd" clip-rule="evenodd" d="M81.2495 131.793C77.8582 131.852 75.0696 129.144 75.0422 125.766L74.2589 29.1877C74.2318 25.8537 76.9066 23.1204 80.2532 23.0622L211.312 20.7835C214.681 20.7249 217.46 23.3979 217.519 26.7538L219.211 123.316C219.27 126.672 216.586 129.44 213.217 129.499L81.2495 131.793Z" fill="white"/>
</g>
<path d="M91.5835 65.7435C91.5835 64.1695 92.8645 62.8934 94.4447 62.8934H123.471C125.051 62.8934 126.332 64.1695 126.332 65.7435C126.332 67.3176 125.051 68.5936 123.471 68.5936H94.4447C92.8645 68.5936 91.5835 67.3176 91.5835 65.7435Z" fill="#E1E5EF"/>
<path d="M130.676 65.7435C130.676 64.1695 131.957 62.8934 133.537 62.8934H145.189C146.769 62.8934 148.05 64.1695 148.05 65.7435C148.05 67.3176 146.769 68.5936 145.189 68.5936H133.537C131.957 68.5936 130.676 67.3176 130.676 65.7435Z" fill="#455358"/>
<path d="M179.904 65.7435C179.904 64.1695 181.185 62.8934 182.765 62.8934H194.417C195.997 62.8934 197.278 64.1695 197.278 65.7435C197.278 67.3176 195.997 68.5936 194.417 68.5936H182.765C181.185 68.5936 179.904 67.3176 179.904 65.7435Z" fill="#E1E5EF"/>
<path d="M152.395 65.7435C152.395 64.1695 153.676 62.8934 155.256 62.8934H172.699C174.279 62.8934 175.56 64.1695 175.56 65.7435C175.56 67.3176 174.279 68.5936 172.699 68.5936H155.256C153.676 68.5936 152.395 67.3176 152.395 65.7435Z" fill="#455358"/>
<path d="M91.5835 111.345C91.5835 109.771 92.8645 108.495 94.4447 108.495H126.367C127.947 108.495 129.228 109.771 129.228 111.345C129.228 112.919 127.947 114.195 126.367 114.195H94.4447C92.8645 114.195 91.5835 112.919 91.5835 111.345Z" fill="#E1E5EF"/>
<path d="M91.5835 88.5443C91.5835 86.9703 92.8645 85.6942 94.4447 85.6942H140.845C142.425 85.6942 143.706 86.9703 143.706 88.5443C143.706 90.1184 142.425 91.3944 140.845 91.3944H94.4447C92.8645 91.3944 91.5835 90.1184 91.5835 88.5443Z" fill="#E1E5EF"/>
<path d="M149.499 88.5443C149.499 86.9703 150.78 85.6942 152.36 85.6942H175.595C177.175 85.6942 178.456 86.9703 178.456 88.5443C178.456 90.1184 177.175 91.3944 175.595 91.3944H152.36C150.78 91.3944 149.499 90.1184 149.499 88.5443Z" fill="#E1E5EF"/>
<path d="M182.799 88.5443C182.799 86.9703 184.08 85.6942 185.661 85.6942H206C207.58 85.6942 208.861 86.9703 208.861 88.5443C208.861 90.1184 207.58 91.3944 206 91.3944H185.661C184.08 91.3944 182.799 90.1184 182.799 88.5443Z" fill="#E1E5EF"/>
<path d="M91.5835 42.9421C91.5835 41.3681 92.8645 40.092 94.4447 40.092H132.158C133.738 40.092 135.019 41.3681 135.019 42.9421C135.019 44.5162 133.738 45.7922 132.158 45.7922H94.4447C92.8645 45.7922 91.5835 44.5162 91.5835 42.9421Z" fill="#E1E5EF"/>
<path d="M139.364 42.9421C139.364 41.3681 140.645 40.092 142.225 40.092H161.116C162.696 40.092 163.977 41.3681 163.977 42.9421C163.977 44.5162 162.696 45.7922 161.116 45.7922H142.225C140.645 45.7922 139.364 44.5162 139.364 42.9421Z" fill="#E1E5EF"/>
<path d="M169.769 42.9421C169.769 41.3681 171.05 40.092 172.63 40.092H200.209C201.789 40.092 203.07 41.3681 203.07 42.9421C203.07 44.5162 201.789 45.7922 200.209 45.7922H172.63C171.05 45.7922 169.769 44.5162 169.769 42.9421Z" fill="#E1E5EF"/>
<path d="M88.6884 84.0457C88.6884 81.8081 90.5094 79.9941 92.7557 79.9941H142.535C144.782 79.9941 146.603 81.8081 146.603 84.0457V93.0433C146.603 95.2809 144.782 97.0948 142.535 97.0948H92.7557C90.5094 97.0948 88.6884 95.2809 88.6884 93.0433V84.0457Z" fill="#EBFF03" fill-opacity="0.7" style="mix-blend-mode:multiply"/>
<path d="M166.873 38.4435C166.873 36.2059 168.694 34.392 170.94 34.392H201.898C204.144 34.392 205.965 36.2059 205.965 38.4435V47.4411C205.965 49.6787 204.144 51.4926 201.898 51.4926H170.94C168.694 51.4926 166.873 49.6787 166.873 47.4411V38.4435Z" fill="#E372FF" fill-opacity="0.7" style="mix-blend-mode:multiply"/>
<defs>
<filter id="filter0_d" x="62.2587" y="12.7826" width="168.953" height="135.011" filterUnits="userSpaceOnUse" color-interpolation-filters="sRGB">
<feFlood flood-opacity="0" result="BackgroundImageFix"/>
<feColorMatrix in="SourceAlpha" type="matrix" values="0 0 0 0 0 0 0 0 0 0 0 0 0 0 0 0 0 0 127 0" result="hardAlpha"/>
<feOffset dy="4"/>
<feGaussianBlur stdDeviation="6"/>
<feColorMatrix type="matrix" values="0 0 0 0 0 0 0 0 0 0 0 0 0 0 0 0 0 0 0.08 0"/>
<feBlend mode="normal" in2="BackgroundImageFix" result="effect1_dropShadow"/>
<feBlend mode="normal" in="SourceGraphic" in2="effect1_dropShadow" result="shape"/>
</filter>
</defs>
</svg>