<svg width="300" height="150" viewBox="0 0 300 150" fill="none" xmlns="http://www.w3.org/2000/svg">
<path d="M84.0626 22.0235C83.8035 18.7768 86.1974 15.9723 89.2609 15.9337L140.22 15.2912C142.689 15.2601 144.708 17.3646 144.728 19.9919C144.749 22.6191 144.728 26.6925 149.237 26.6925L221.802 25.7777C224.851 25.7392 227.283 28.4585 227.096 31.6976L221.876 122.062C221.707 124.997 219.432 127.3 216.669 127.335L97.3069 128.84C94.5574 128.874 92.2542 126.651 92.0216 123.737L84.0626 22.0235Z" fill="#7684FF"/>
<path d="M72.3622 63.1164C71.3201 60.8235 72.6251 58.0259 75.188 57.0588L195.327 11.7196C197.865 10.7615 200.569 12.0048 201.212 14.4259L220.715 87.8862C221.297 90.079 219.966 92.4521 217.666 93.3198L109.377 134.187C107.101 135.046 104.64 134.141 103.715 132.105L72.3622 63.1164Z" fill="#59E8B5"/>
<path d="M75.4552 55.4076C74.7439 52.8779 76.3613 50.2361 78.9756 49.6575L211.763 20.2682C214.352 19.6951 216.85 21.3844 217.228 23.9645L228.805 102.929C229.154 105.312 227.557 107.59 225.165 108.119L102.382 135.294C100.015 135.818 97.6798 134.448 97.0357 132.158L75.4552 55.4076Z" fill="#C9FEEB"/>
<g filter="url(#filter0_d)">
<path d="M82.9121 47.9473C82.7015 45.1055 84.7419 42.6585 87.3495 42.6256L230.357 40.8228C232.964 40.7899 235.042 43.1849 234.876 46.0315L229.836 132.28C229.686 134.85 227.747 136.862 225.393 136.892L93.8064 138.551C91.4525 138.58 89.4828 136.617 89.2927 134.052L82.9121 47.9473Z" fill="#CED3FF"/>
</g>
<path d="M93.9047 22.8857C93.8857 21.436 95.05 20.2454 96.5053 20.2263L131.237 19.7706C132.693 19.7515 133.888 20.9112 133.907 22.3608C133.926 23.8105 132.762 25.0011 131.306 25.0202L96.5742 25.4759C95.1189 25.495 93.9237 24.3353 93.9047 22.8857Z" fill="#4255FF"/>
<path fill-rule="evenodd" clip-rule="evenodd" d="M141.53 92.3242C140.996 91.63 140.552 91.0357 140.019 90.3414C137.587 91.353 135.17 92.08 133.088 93.6809C132.688 94.04 132.378 94.499 131.979 94.8581C131.479 95.307 131.065 95.9506 130.58 96.115C129.132 96.5133 128.208 97.7955 126.67 98.0939C125.802 98.3328 125.007 98.9562 124.223 99.3899C123.34 99.9134 122.55 100.442 121.572 100.96C118.441 102.6 115.215 104.235 112.084 105.875C110.911 106.478 109.917 107.281 108.753 107.695C107.006 108.362 105.348 109.13 103.775 110.092C101.612 111.404 98.8419 111.636 97.2031 113.831C97.1032 113.921 96.9135 113.911 96.7238 113.901C96.0549 113.96 95.5554 114.409 95.061 114.763C94.2668 115.387 93.3779 116.005 92.5041 116.339C90.6566 117.096 88.9786 118.243 87.3006 119.39C86.906 119.654 86.5115 119.918 86.122 120.088C84.1646 121.125 82.556 122.751 80.4291 123.398C79.0053 125.129 76.3397 125.177 75.0903 127.203C74.9803 127.482 74.4112 127.452 74.1166 127.627C73.6323 127.791 73.0531 127.95 72.5638 128.21C70.0916 129.98 67.3602 131.261 64.4544 132.247C63.291 132.66 62.1378 132.884 60.9947 132.918C58.9082 132.807 57.8056 132.082 57.0583 130.045C56.8143 129.271 56.6701 128.408 56.6158 127.644C56.6133 124.125 57.5492 120.846 59.1387 117.792C61.1481 114 63.5318 110.323 66.1899 106.85C70.6815 101.098 75.722 95.7559 80.7574 90.5083C82.3659 88.8821 83.5 87.5 83.5 87.5L83 86.5L80.8802 88.3246C77.9831 90.9282 75.8991 92.4365 73.6406 95.5497C73.1259 96.2831 72.4266 96.9116 71.7324 97.4452C70.1492 98.5971 69.02 100.154 67.801 101.61C66.1824 103.426 64.6535 105.342 63.1196 107.352C59.7369 111.927 56.549 116.418 55.0176 121.947C54.2967 124.762 54.2499 127.423 55.2513 130.044C56.0783 132.371 57.8043 133.889 60.05 134.58C62.0113 135.255 64.1028 135.272 66.0451 134.519C68.3819 133.503 70.8136 132.491 73.0708 131.185C77.685 128.483 82.2146 125.586 86.739 122.784C90.3746 120.6 94.0151 118.321 97.7404 116.238C100.782 114.498 103.908 112.953 107.038 111.313C110.953 109.239 114.784 106.97 118.783 105.091C125.904 101.762 132.681 97.7488 139.362 93.7303C139.936 93.6658 140.636 93.0374 141.53 92.3242Z" fill="#1A1D28"/>
<path fill-rule="evenodd" clip-rule="evenodd" d="M146.377 86.9692C145.149 86.8086 143.921 86.648 142.593 86.5771C141.36 86.5113 140.028 86.5354 138.795 86.4696C135.765 86.2128 132.764 87.194 129.809 87.3216C127.997 87.4152 126.265 87.7983 124.368 87.6971C124.238 88.3559 124.207 88.9249 124.756 89.3346C125.395 89.8442 126.138 90.1692 127.012 89.8354C127.401 89.666 127.886 89.5016 128.365 89.4321C131.61 89.2248 134.77 88.8227 138.004 88.8051C140.191 88.8266 142.387 88.6585 144.728 89.354C144.608 89.8232 144.687 90.1127 144.492 90.1975C142.01 92.1574 140.8 95.2314 138.138 96.9915C137.843 97.166 137.634 97.5353 137.429 97.8097C136.169 100.025 134.276 101.636 132.568 103.352C131.159 104.798 129.386 105.94 128.252 107.592C127.218 109.153 125.914 110.415 124.61 111.677C123.002 113.303 121.862 115.05 121.461 117.216C122.124 119.058 122.124 119.058 123.027 119.962C123.132 119.778 123.337 119.503 123.442 119.319C124.521 116.903 126.24 114.998 127.958 113.092C131.186 109.65 134.413 106.208 137.635 102.861C141.566 98.6962 145.039 94.2212 148.611 89.6564C148.811 89.4768 148.826 89.1923 148.941 88.818C148.323 87.929 147.604 87.1298 146.377 86.9692Z" fill="#1A1D28"/>
<defs>
<filter id="filter0_d" x="79.8972" y="38.8224" width="157.988" height="103.729" filterUnits="userSpaceOnUse" color-interpolation-filters="sRGB">
<feFlood flood-opacity="0" result="BackgroundImageFix"/>
<feColorMatrix in="SourceAlpha" type="matrix" values="0 0 0 0 0 0 0 0 0 0 0 0 0 0 0 0 0 0 127 0" result="hardAlpha"/>
<feOffset dy="1"/>
<feGaussianBlur stdDeviation="1.5"/>
<feColorMatrix type="matrix" values="0 0 0 0 0.188235 0 0 0 0 0.207843 0 0 0 0 0.270588 0 0 0 0.08 0"/>
<feBlend mode="normal" in2="BackgroundImageFix" result="effect1_dropShadow"/>
<feBlend mode="normal" in="SourceGraphic" in2="effect1_dropShadow" result="shape"/>
</filter>
</defs>
</svg>