<svg width="54" height="44" viewBox="0 0 54 44" fill="none" xmlns="http://www.w3.org/2000/svg">
<path d="M11.2427 16.3547C11.2427 13.5814 13.6169 11.3333 16.5456 11.3333H48.364C51.2927 11.3333 53.6669 13.5814 53.6669 16.3547V38.3118C53.6669 41.0851 51.2927 43.3333 48.364 43.3333H16.5456C13.6169 43.3333 11.2427 41.0851 11.2427 38.3118V16.3547Z" fill="#FFC38C"/>
<path d="M0.333496 5.6882C0.333496 2.91493 2.72127 0.666748 5.66675 0.666748H37.6671C40.6126 0.666748 43.0003 2.91492 43.0003 5.68819V27.6453C43.0003 30.4186 40.6125 32.6668 37.6671 32.6668H5.66675C2.72127 32.6668 0.333496 30.4186 0.333496 27.6453V5.6882Z" fill="#FF983A"/>
<path fill-rule="evenodd" clip-rule="evenodd" d="M20.0086 8.80812C19.5293 8.22621 18.669 8.14299 18.0871 8.62226L14.2538 11.7793C13.6719 12.2586 13.5887 13.1189 14.068 13.7008L17.2251 17.534C17.7043 18.116 18.5646 18.1992 19.1465 17.7199C19.7284 17.2406 19.8116 16.3804 19.3324 15.7985L17.0431 13.0189L19.8227 10.7296C20.4046 10.2503 20.4878 9.39004 20.0086 8.80812Z" fill="white"/>
<path fill-rule="evenodd" clip-rule="evenodd" d="M17.651 14.4597C18.9179 14.4597 20.1725 14.7093 21.343 15.1941C22.5136 15.679 23.5771 16.3897 24.473 17.2855C25.3689 18.1814 26.0796 19.245 26.5644 20.4155C27.0493 21.5861 27.2988 22.8406 27.2988 24.1076C27.2988 24.8615 27.9099 25.4726 28.6638 25.4726C29.4177 25.4726 30.0288 24.8615 30.0288 24.1076C30.0288 22.4821 29.7087 20.8726 29.0866 19.3708C28.4646 17.869 27.5528 16.5045 26.4034 15.3551C25.254 14.2057 23.8895 13.294 22.3878 12.6719C20.886 12.0499 19.2764 11.7297 17.651 11.7297C16.8971 11.7297 16.286 12.3409 16.286 13.0947C16.286 13.8486 16.8971 14.4597 17.651 14.4597Z" fill="white"/>
</svg>