<svg width="54" height="44" viewBox="0 0 54 44" fill="none" xmlns="http://www.w3.org/2000/svg">
<path d="M11.2427 16.3548C11.2427 13.5816 13.6169 11.3334 16.5456 11.3334H48.364C51.2927 11.3334 53.6669 13.5815 53.6669 16.3548V38.3119C53.6669 41.0852 51.2927 43.3334 48.364 43.3334H16.5456C13.6169 43.3334 11.2427 41.0852 11.2427 38.3119V16.3548Z" fill="#98E3FF"/>
<path d="M0.333496 5.6882C0.333496 2.91493 2.72127 0.666748 5.66675 0.666748H37.6671C40.6126 0.666748 43.0003 2.91492 43.0003 5.68819V27.6453C43.0003 30.4186 40.6125 32.6668 37.6671 32.6668H5.66675C2.72127 32.6668 0.333496 30.4186 0.333496 27.6453V5.6882Z" fill="#51CFFF"/>
<path d="M20.2748 9.14235C20.9357 8.13207 22.3983 8.13207 23.0592 9.14235L24.8606 11.8962C25.0827 12.2356 25.4177 12.4825 25.8046 12.5918L28.9435 13.4785C30.095 13.8038 30.547 15.2147 29.8039 16.1644L27.7783 18.7531C27.5287 19.0721 27.4007 19.4716 27.4178 19.8785L27.5563 23.1804C27.6071 24.3917 26.4238 25.2637 25.3037 24.8404L22.2504 23.6864C21.8741 23.5442 21.4599 23.5442 21.0836 23.6864L18.0303 24.8404C16.9102 25.2637 15.7269 24.3917 15.7777 23.1804L15.9162 19.8785C15.9332 19.4716 15.8053 19.0721 15.5556 18.7531L13.5301 16.1644C12.787 15.2147 13.239 13.8038 14.3905 13.4785L17.5294 12.5918C17.9162 12.4825 18.2513 12.2356 18.4733 11.8962L20.2748 9.14235Z" fill="white"/>
</svg>